<svg version="1.1" xmlns="http://www.w3.org/2000/svg" viewBox="0 0 1331.8346643066402 917" width="1331.8346643066402" height="917">
  <!-- svg-source:excalidraw -->
  
  <defs>
    <style class="style-fonts">
      @font-face {
        font-family: "Virgil";
        src: url("https://excalidraw.com/Virgil.woff2");
      }
      @font-face {
        font-family: "Cascadia";
        src: url("https://excalidraw.com/Cascadia.woff2");
      }
    </style>
    
  </defs>
  <rect x="0" y="0" width="1331.8346643066402" height="917" fill="#ffffff"></rect><g stroke-linecap="round" transform="translate(630 221) rotate(0 44.5 46.5)"><path d="M22.25 0 M22.25 0 C38.82 -1.91, 57.28 0.26, 66.75 0 M22.25 0 C33.83 0.75, 47.16 -0.04, 66.75 0 M66.75 0 C80.94 0.33, 90.19 8.67, 89 22.25 M66.75 0 C83.11 -0.34, 91.07 5.39, 89 22.25 M89 22.25 C89.4 41.99, 88.22 62.41, 89 70.75 M89 22.25 C89.3 33.96, 88.78 43.38, 89 70.75 M89 70.75 C89.02 85.46, 82.56 94.03, 66.75 93 M89 70.75 C87.52 84.68, 82.48 90.95, 66.75 93 M66.75 93 C54.89 92.74, 43.4 91.56, 22.25 93 M66.75 93 C51.8 91.73, 35.24 93.27, 22.25 93 M22.25 93 C8.76 94.17, 1.63 85.63, 0 70.75 M22.25 93 C9.25 91.42, 0.73 86.31, 0 70.75 M0 70.75 C-0.15 57.14, 0.59 46.09, 0 22.25 M0 70.75 C-0.86 60.8, -0.42 49.96, 0 22.25 M0 22.25 C-1.35 5.69, 7.77 1.01, 22.25 0 M0 22.25 C0.58 8.39, 5.87 -2.14, 22.25 0" stroke="#1e1e1e" stroke-width="1" fill="none"></path></g><g transform="translate(653.7583332061768 255) rotate(0 20.741666793823242 12.5)"><text x="20.741666793823242" y="0" font-family="Virgil, Segoe UI Emoji" font-size="20px" fill="#1e1e1e" text-anchor="middle" style="white-space: pre;" direction="ltr" dominant-baseline="text-before-edge">SRV1</text></g><g stroke-linecap="round" transform="translate(636 347) rotate(0 41 48)"><path d="M20.5 0 M20.5 0 C33.5 1.4, 44.71 1.86, 61.5 0 M20.5 0 C30.27 0.45, 42.27 0.53, 61.5 0 M61.5 0 C76.02 -1.35, 80.14 5.35, 82 20.5 M61.5 0 C73.32 -1.39, 80.3 9.06, 82 20.5 M82 20.5 C82.9 33.64, 81.62 47.74, 82 75.5 M82 20.5 C81.05 33.18, 82.33 47.55, 82 75.5 M82 75.5 C80.11 90.62, 77.08 95.09, 61.5 96 M82 75.5 C80.92 90.8, 75.03 93.94, 61.5 96 M61.5 96 C49.25 94.7, 34.45 96.69, 20.5 96 M61.5 96 C49.15 96.96, 36.49 96.35, 20.5 96 M20.5 96 C5.86 94.89, -1.28 87.94, 0 75.5 M20.5 96 C8.39 95.22, -0.7 89.05, 0 75.5 M0 75.5 C0.18 60.62, -0.23 49.58, 0 20.5 M0 75.5 C-0.28 62.13, -0.61 46.27, 0 20.5 M0 20.5 C1.72 6.88, 8.83 0.29, 20.5 0 M0 20.5 C-0.45 7.17, 6.63 1.5, 20.5 0" stroke="#1e1e1e" stroke-width="1" fill="none"></path></g><g transform="translate(651.8500003814697 382.5) rotate(0 25.149999618530273 12.5)"><text x="25.149999618530273" y="0" font-family="Virgil, Segoe UI Emoji" font-size="20px" fill="#1e1e1e" text-anchor="middle" style="white-space: pre;" direction="ltr" dominant-baseline="text-before-edge">SRV2</text></g><g stroke-linecap="round" transform="translate(638 475) rotate(0 46 55.5)"><path d="M23 0 M23 0 C34.37 0.4, 43.19 -0.86, 69 0 M23 0 C38.22 -0.22, 54.23 -0.02, 69 0 M69 0 C84.79 -1.18, 93.32 9.58, 92 23 M69 0 C83.02 0.97, 92.95 6.82, 92 23 M92 23 C91.04 46.28, 92.33 65.21, 92 88 M92 23 C91.56 41.03, 91.07 57.92, 92 88 M92 88 C90.61 104.15, 86.05 109.41, 69 111 M92 88 C93.01 101.1, 84.5 113.19, 69 111 M69 111 C54.1 113.07, 42.56 110.11, 23 111 M69 111 C52.37 110.75, 36.89 111.42, 23 111 M23 111 C7.37 111.94, -1.46 104.44, 0 88 M23 111 C7.1 109.21, 1.43 103.69, 0 88 M0 88 C-0.1 67.37, -0.92 49.19, 0 23 M0 88 C0.3 66.86, -0.11 46.05, 0 23 M0 23 C1.12 9.42, 7.52 0.45, 23 0 M0 23 C1.03 7.58, 9.72 1.62, 23 0" stroke="#1e1e1e" stroke-width="1" fill="none"></path></g><g transform="translate(659.158332824707 518) rotate(0 24.84166717529297 12.5)"><text x="24.84166717529297" y="0" font-family="Virgil, Segoe UI Emoji" font-size="20px" fill="#1e1e1e" text-anchor="middle" style="white-space: pre;" direction="ltr" dominant-baseline="text-before-edge">SRV3</text></g><g stroke-linecap="round" transform="translate(862 159) rotate(0 13.041666984558105 35)"><path d="M17.5 9 M17.5 9 C17.75 16.52, 22.31 21.77, 22.58 27 M17.5 9 C18.55 12.98, 19.36 16.17, 22.58 27 M22.58 27 C25.39 36.03, 24.96 36.71, 22.58 45 M22.58 27 C25.58 37.01, 27.89 34.52, 22.58 45 M22.58 45 C21.91 49.98, 19.24 54.01, 17.5 61 M22.58 45 C22.31 49.57, 19.89 52.4, 17.5 61 M17.5 61 C15.28 68.44, 12.5 69.53, 10.5 61 M17.5 61 C15.29 71.23, 14.95 69.5, 10.5 61 M10.5 61 C6.9 54.7, 5.81 47.92, 3.5 45 M10.5 61 C7.96 56.91, 6.49 52.16, 3.5 45 M3.5 45 C-0.81 36.61, -1.21 36.18, 3.5 27 M3.5 45 C-0.22 33.73, 1.97 37.9, 3.5 27 M3.5 27 C5.29 22.34, 8.9 16.89, 10.5 9 M3.5 27 C4.52 22.3, 7.34 19.87, 10.5 9 M10.5 9 C12.26 1.7, 15.28 -0.98, 17.5 9 M10.5 9 C12.77 -1.3, 14.89 -1.83, 17.5 9" stroke="#1e1e1e" stroke-width="1" fill="none"></path></g><g stroke-linecap="round" transform="translate(901 212) rotate(0 12 13.5)"><path d="M16.25 3.5 M16.25 3.5 C16.95 5.19, 18.79 6.97, 20.75 10.5 M16.25 3.5 C18.07 5.56, 19.31 7.88, 20.75 10.5 M20.75 10.5 C25.01 15.23, 23.93 13.95, 20.75 17.5 M20.75 10.5 C22.57 12.6, 25.88 14.78, 20.75 17.5 M20.75 17.5 C18.78 20.34, 16.65 21.68, 16.25 23.5 M20.75 17.5 C19.7 19.1, 18.56 20.79, 16.25 23.5 M16.25 23.5 C12.5 25.81, 12.58 27.53, 9.75 23.5 M16.25 23.5 C11.37 26.42, 13.93 26.21, 9.75 23.5 M9.75 23.5 C8.17 21.72, 6.92 20.12, 3.25 17.5 M9.75 23.5 C8.13 21.95, 5.52 19.48, 3.25 17.5 M3.25 17.5 C0.06 13.92, -0.15 15.84, 3.25 10.5 M3.25 17.5 C-1.29 12.23, -0.09 14.77, 3.25 10.5 M3.25 10.5 C5.79 7.92, 7.27 7.66, 9.75 3.5 M3.25 10.5 C5.1 8.4, 6.63 7.31, 9.75 3.5 M9.75 3.5 C12.94 1.35, 14.51 1.71, 16.25 3.5 M9.75 3.5 C12.29 -2.24, 11.97 1.48, 16.25 3.5" stroke="#1e1e1e" stroke-width="1" fill="none"></path></g><g stroke-linecap="round" transform="translate(889 260) rotate(0 11 17.5)"><path d="M15 4.5 M15 4.5 C15.83 7.16, 18.69 11.35, 19 13.5 M15 4.5 C16.51 8.4, 17.87 11.29, 19 13.5 M19 13.5 C21.53 19.13, 23.07 18.83, 19 22.5 M19 13.5 C21.5 19.59, 21.72 17.42, 19 22.5 M19 22.5 C17.39 24.21, 17.42 26.05, 15 30.5 M19 22.5 C18.07 24.21, 17.27 26.01, 15 30.5 M15 30.5 C12.18 34.81, 10.02 36.72, 9 30.5 M15 30.5 C13.9 33.87, 10.68 35.06, 9 30.5 M9 30.5 C6.67 27.42, 5.41 26.15, 3 22.5 M9 30.5 C8.07 28.16, 6.57 26.98, 3 22.5 M3 22.5 C-0.98 16.93, -1.13 18.77, 3 13.5 M3 22.5 C-1.83 18.39, 1.38 17.93, 3 13.5 M3 13.5 C4.8 9.09, 6.86 7.53, 9 4.5 M3 13.5 C3.87 11.65, 4.96 9.08, 9 4.5 M9 4.5 C12.77 0.14, 12.25 -1.35, 15 4.5 M9 4.5 C12.02 0.53, 9.77 -2.11, 15 4.5" stroke="#1e1e1e" stroke-width="1" fill="none"></path></g><g stroke-linecap="round" transform="translate(828 223) rotate(0 9.5 12.5)"><path d="M12.5 3.25 M12.5 3.25 C13.77 5.11, 14.54 5.98, 16.5 9.75 M12.5 3.25 C13.74 5.58, 15.55 7.79, 16.5 9.75 M16.5 9.75 C18.5 13.81, 18.31 11.73, 16.5 16.25 M16.5 9.75 C19.86 12.75, 18.94 12.07, 16.5 16.25 M16.5 16.25 C15.08 17.4, 14.41 20.45, 12.5 21.75 M16.5 16.25 C15.45 17.6, 14.78 18.82, 12.5 21.75 M12.5 21.75 C8.46 24.93, 10.67 23.86, 7.5 21.75 M12.5 21.75 C8.42 26.69, 12.19 22.99, 7.5 21.75 M7.5 21.75 C5.14 19.19, 3.9 16.9, 2.5 16.25 M7.5 21.75 C6.13 20.29, 4.62 18.15, 2.5 16.25 M2.5 16.25 C-1.95 12.1, 1.29 11.28, 2.5 9.75 M2.5 16.25 C1.85 14.54, -1.46 13.47, 2.5 9.75 M2.5 9.75 C3.63 8.52, 4.03 7.11, 7.5 3.25 M2.5 9.75 C4.38 7.47, 5.83 5.43, 7.5 3.25 M7.5 3.25 C8.12 1.65, 10.32 1.93, 12.5 3.25 M7.5 3.25 C12.02 1.65, 8.78 -2.09, 12.5 3.25" stroke="#1e1e1e" stroke-width="1" fill="none"></path></g><g stroke-linecap="round" transform="translate(852 313) rotate(0 18 27.5)"><path d="M23.75 7 M23.75 7 C24.86 11.47, 27.75 14.68, 31.25 21 M23.75 7 C25.81 10.6, 26.9 14.99, 31.25 21 M31.25 21 C37.65 27.02, 34.85 28.06, 31.25 35 M31.25 21 C35.91 27.83, 38.12 26.71, 31.25 35 M31.25 35 C28.72 36.9, 29 42.25, 23.75 48 M31.25 35 C29.4 37.41, 27.74 40.87, 23.75 48 M23.75 48 C17.41 55.33, 20.2 54.94, 14.25 48 M23.75 48 C20.56 56.74, 20.97 54.29, 14.25 48 M14.25 48 C10.99 46.72, 11.54 41.77, 4.75 35 M14.25 48 C11.65 43.8, 8.39 39.04, 4.75 35 M4.75 35 C0.01 28.46, -1.94 26.16, 4.75 21 M4.75 35 C1.14 26.75, 0.24 27.07, 4.75 21 M4.75 21 C8.23 19.59, 9.77 14.32, 14.25 7 M4.75 21 C7.37 18.66, 9.31 15.2, 14.25 7 M14.25 7 C19.4 0.38, 18.62 -0.58, 23.75 7 M14.25 7 C19.98 2.17, 19.87 0.84, 23.75 7" stroke="#1e1e1e" stroke-width="1" fill="none"></path></g><g stroke-linecap="round" transform="translate(923 347) rotate(0 12.5 15.5)"><path d="M16.25 4 M16.25 4 C18.34 7.05, 20.34 11.05, 21.75 12 M16.25 4 C17.69 5.68, 18.54 8.26, 21.75 12 M21.75 12 C26.91 14.26, 26.7 17.28, 21.75 20 M21.75 12 C23.88 14.77, 23.7 16.89, 21.75 20 M21.75 20 C20.52 22.18, 20.01 23.88, 16.25 27 M21.75 20 C20.49 21.47, 19.08 24.04, 16.25 27 M16.25 27 C11.73 31.41, 11.04 29.05, 9.75 27 M16.25 27 C13.89 31.17, 13.28 29.45, 9.75 27 M9.75 27 C6.9 25.3, 5.3 22.83, 3.25 20 M9.75 27 C8.21 25.7, 6.86 23.76, 3.25 20 M3.25 20 C-1.06 14.19, 0.13 15.6, 3.25 12 M3.25 20 C1.75 17.54, 1.61 16.1, 3.25 12 M3.25 12 C5.02 9.89, 8.37 7.28, 9.75 4 M3.25 12 C5.65 9.24, 7.67 6.24, 9.75 4 M9.75 4 C12.13 -1.28, 12.79 0.83, 16.25 4 M9.75 4 C15.1 0.72, 12.11 -0.21, 16.25 4" stroke="#1e1e1e" stroke-width="1" fill="none"></path></g><g stroke-linecap="round" transform="translate(846 394) rotate(0 12.5 19)"><path d="M16.25 5 M16.25 5 C16.95 6.48, 18.03 9.66, 21.75 15 M16.25 5 C17.46 7.56, 19.12 9.86, 21.75 15 M21.75 15 C24.38 18.05, 24.1 21.29, 21.75 25 M21.75 15 C23.02 21.85, 26.54 18.54, 21.75 25 M21.75 25 C20.28 27.58, 18.27 29.42, 16.25 33 M21.75 25 C19.67 27.59, 18.2 29.81, 16.25 33 M16.25 33 C12.19 36.12, 14.65 38.32, 9.75 33 M16.25 33 C15.22 40.02, 14.65 36.78, 9.75 33 M9.75 33 C9.17 32, 7.75 29.68, 3.25 25 M9.75 33 C7.51 30.65, 6.06 28.06, 3.25 25 M3.25 25 C0.73 19.04, 0.02 20.66, 3.25 15 M3.25 25 C-0.32 20.03, -1.67 19, 3.25 15 M3.25 15 C5.89 12.98, 5.87 10.14, 9.75 5 M3.25 15 C4.74 12.94, 6.05 11.06, 9.75 5 M9.75 5 C12.69 -1.24, 12.71 -0.03, 16.25 5 M9.75 5 C13.5 -0.76, 13.18 -1.1, 16.25 5" stroke="#1e1e1e" stroke-width="1" fill="none"></path></g><g stroke-linecap="round" transform="translate(939 411) rotate(0 18.5 18.5)"><path d="M23.75 4.75 M23.75 4.75 C25.96 8.56, 30.16 13.13, 32.25 14.25 M23.75 4.75 C27.07 8.36, 29.94 11.54, 32.25 14.25 M32.25 14.25 C37.85 20.89, 37.75 19.73, 32.25 23.75 M32.25 14.25 C35.89 19.02, 37.76 18.68, 32.25 23.75 M32.25 23.75 C28.86 26.15, 27.57 29.93, 23.75 32.25 M32.25 23.75 C28.91 26.23, 26.02 29.39, 23.75 32.25 M23.75 32.25 C19.2 36.73, 20.17 36.69, 14.25 32.25 M23.75 32.25 C17.57 36.67, 18.97 37.5, 14.25 32.25 M14.25 32.25 C12.75 29.4, 9.77 28.81, 4.75 23.75 M14.25 32.25 C12.37 29.96, 10.48 28.59, 4.75 23.75 M4.75 23.75 C-1.46 18.11, -1.26 19.93, 4.75 14.25 M4.75 23.75 C-0.13 20.43, -0.29 18.61, 4.75 14.25 M4.75 14.25 C6.84 12.81, 11.12 7.67, 14.25 4.75 M4.75 14.25 C7.27 11.8, 11.22 8.33, 14.25 4.75 M14.25 4.75 C19.73 0.01, 20.27 0.47, 23.75 4.75 M14.25 4.75 C17.57 0.1, 19.44 2.02, 23.75 4.75" stroke="#1e1e1e" stroke-width="1" fill="none"></path></g><g stroke-linecap="round" transform="translate(822 468) rotate(0 11 20.5)"><path d="M15 5.25 M15 5.25 C16.55 8.47, 16.67 10.92, 19 15.75 M15 5.25 C15.91 8.5, 17.29 12.19, 19 15.75 M19 15.75 C22.83 22.83, 22.62 20.23, 19 26.25 M19 15.75 C21.79 19.11, 20.77 18.84, 19 26.25 M19 26.25 C18.4 28.96, 15.94 31.85, 15 35.75 M19 26.25 C17.87 28.83, 17.05 31.69, 15 35.75 M15 35.75 C12.94 42.79, 10.21 42.33, 9 35.75 M15 35.75 C10.3 41.63, 10.46 42.01, 9 35.75 M9 35.75 C6.57 33.41, 5.43 30.76, 3 26.25 M9 35.75 C6.84 32.63, 5.29 30.77, 3 26.25 M3 26.25 C1.38 19.09, 0.39 22.07, 3 15.75 M3 26.25 C0.86 19.42, 2.13 22.56, 3 15.75 M3 15.75 C5.7 12.59, 6.14 8.92, 9 5.25 M3 15.75 C5.39 12.79, 7.12 9.56, 9 5.25 M9 5.25 C13.82 -0.96, 13.47 -1.31, 15 5.25 M9 5.25 C10.72 0.3, 12.45 0.28, 15 5.25" stroke="#1e1e1e" stroke-width="1" fill="none"></path></g><g stroke-linecap="round" transform="translate(878 543) rotate(0 6 14)"><path d="M8.75 3.75 M8.75 3.75 C9.8 5.75, 9.16 7.22, 10.25 11.25 M8.75 3.75 C9.05 5.43, 9.31 7.25, 10.25 11.25 M10.25 11.25 C11.69 13.76, 11.71 14.97, 10.25 18.75 M10.25 11.25 C12.5 14.24, 12.18 13.9, 10.25 18.75 M10.25 18.75 C10.17 20.35, 9.46 22.54, 8.75 24.25 M10.25 18.75 C9.72 20.35, 9.1 22.18, 8.75 24.25 M8.75 24.25 C7.93 27.89, 8.25 27.75, 5.25 24.25 M8.75 24.25 C6.61 27.59, 5.13 26.45, 5.25 24.25 M5.25 24.25 C3.7 23.03, 3.8 21.77, 1.75 18.75 M5.25 24.25 C4.48 23.12, 3.58 21.93, 1.75 18.75 M1.75 18.75 C0.47 13.75, 0.09 15.39, 1.75 11.25 M1.75 18.75 C2.02 13.83, 2.17 16.36, 1.75 11.25 M1.75 11.25 C2.57 9.1, 3.69 5.31, 5.25 3.75 M1.75 11.25 C2.97 8.9, 4.27 6.58, 5.25 3.75 M5.25 3.75 C8.37 0.45, 7.57 -1.75, 8.75 3.75 M5.25 3.75 C6.72 0.62, 9.17 -2.05, 8.75 3.75" stroke="#1e1e1e" stroke-width="1" fill="none"></path></g><g stroke-linecap="round" transform="translate(907 463) rotate(0 20 21.5)"><path d="M26.25 5.5 M26.25 5.5 C30.03 10.06, 31.47 14.89, 34.75 16.5 M26.25 5.5 C29.41 9.96, 32.7 13.13, 34.75 16.5 M34.75 16.5 C40.09 22.39, 41.75 20.99, 34.75 27.5 M34.75 16.5 C42.17 23.36, 41.46 23.84, 34.75 27.5 M34.75 27.5 C30.52 30.74, 28.22 35.64, 26.25 37.5 M34.75 27.5 C32.68 30.67, 29.93 33.89, 26.25 37.5 M26.25 37.5 C21.57 41.25, 20.76 43.54, 15.75 37.5 M26.25 37.5 C23.17 40.95, 22.38 40.94, 15.75 37.5 M15.75 37.5 C13.74 34.79, 10.11 33.25, 5.25 27.5 M15.75 37.5 C11.89 34.74, 8.91 30.94, 5.25 27.5 M5.25 27.5 C-0.14 22.72, 1.35 23.72, 5.25 16.5 M5.25 27.5 C0 22.85, -0.19 23.96, 5.25 16.5 M5.25 16.5 C8.66 13.05, 14.65 8.51, 15.75 5.5 M5.25 16.5 C7.93 12.5, 12.17 9.78, 15.75 5.5 M15.75 5.5 C22.87 -0.73, 21.78 1.19, 26.25 5.5 M15.75 5.5 C18.98 0.2, 19.13 -0.17, 26.25 5.5" stroke="#1e1e1e" stroke-width="1" fill="none"></path></g><g stroke-linecap="round" transform="translate(874 490) rotate(0 14.5 13)"><path d="M18.75 3.5 M18.75 3.5 C20.26 6.48, 23.28 8.31, 25.25 10.5 M18.75 3.5 C21.63 5.88, 23.49 8.91, 25.25 10.5 M25.25 10.5 C29.39 14.24, 29.68 14.03, 25.25 17.5 M25.25 10.5 C30.93 14.18, 30.58 14.52, 25.25 17.5 M25.25 17.5 C23.29 19.91, 20.21 21.27, 18.75 22.5 M25.25 17.5 C23.77 18.67, 22.27 19.29, 18.75 22.5 M18.75 22.5 C14.74 26.48, 13.56 25.16, 11.25 22.5 M18.75 22.5 C13.34 27.67, 14.68 25.91, 11.25 22.5 M11.25 22.5 C9.81 21.09, 7.17 19.55, 3.75 17.5 M11.25 22.5 C8.12 20.29, 5.68 18.91, 3.75 17.5 M3.75 17.5 C0.88 14.38, -0.24 15.37, 3.75 10.5 M3.75 17.5 C-2.07 12.74, 0.63 15.14, 3.75 10.5 M3.75 10.5 C7.34 6.81, 9.77 4.13, 11.25 3.5 M3.75 10.5 C6.44 8.9, 8.29 6.35, 11.25 3.5 M11.25 3.5 C15.22 0.63, 14.09 -0.51, 18.75 3.5 M11.25 3.5 C16.45 1.21, 14.7 1.68, 18.75 3.5" stroke="#1e1e1e" stroke-width="1" fill="none"></path></g><g stroke-linecap="round" transform="translate(996 477) rotate(0 18.5 23.5)"><path d="M23.75 6 M23.75 6 C26.93 9.77, 30.33 13.62, 32.25 18 M23.75 6 C26.27 10.31, 30.24 15.52, 32.25 18 M32.25 18 C35.22 25.2, 35.21 22.05, 32.25 30 M32.25 18 C38.95 23.63, 37.33 22.93, 32.25 30 M32.25 30 C29.45 31.75, 27.66 35.65, 23.75 41 M32.25 30 C30.06 33.61, 27.98 36.29, 23.75 41 M23.75 41 C19.74 46.83, 20.71 48.91, 14.25 41 M23.75 41 C17.69 46.02, 17.78 48.29, 14.25 41 M14.25 41 C10.54 37.97, 5.91 32.13, 4.75 30 M14.25 41 C10.82 37.77, 8.41 33.25, 4.75 30 M4.75 30 C0.18 22.37, -0.15 23.27, 4.75 18 M4.75 30 C0.23 26.1, 2.03 24.59, 4.75 18 M4.75 18 C6.81 14.08, 11.25 11.77, 14.25 6 M4.75 18 C7.6 14.8, 10.1 10.65, 14.25 6 M14.25 6 C18.5 0.18, 18.12 1.94, 23.75 6 M14.25 6 C18.15 1.6, 17.8 0.29, 23.75 6" stroke="#1e1e1e" stroke-width="1" fill="none"></path></g><g stroke-linecap="round" transform="translate(994 566) rotate(0 11.5 12)"><path d="M15 3.25 M15 3.25 C15.29 5.36, 17.02 6.15, 20 9.75 M15 3.25 C16.31 4.61, 17.31 6.26, 20 9.75 M20 9.75 C24.45 12.72, 22.92 12.86, 20 16.25 M20 9.75 C23.83 14.55, 24.98 13, 20 16.25 M20 16.25 C18.95 17.43, 16.34 18.97, 15 20.75 M20 16.25 C18.31 17.84, 16.7 19.18, 15 20.75 M15 20.75 C10.9 24.55, 12.99 25.87, 9 20.75 M15 20.75 C11.16 24.9, 13.37 21.98, 9 20.75 M9 20.75 C6.91 19.43, 6.01 18.63, 3 16.25 M9 20.75 C7.17 19.12, 5 18.06, 3 16.25 M3 16.25 C1.05 12.74, 1.46 14.21, 3 9.75 M3 16.25 C0.62 13.92, -0.04 11.79, 3 9.75 M3 9.75 C5.5 7.66, 6.91 5.74, 9 3.25 M3 9.75 C5.18 7.85, 6.53 5.56, 9 3.25 M9 3.25 C12.28 0.03, 12.16 1.11, 15 3.25 M9 3.25 C11.25 0.69, 12.54 -1.5, 15 3.25" stroke="#1e1e1e" stroke-width="1" fill="none"></path></g><g stroke-linecap="round" transform="translate(400 327) rotate(0 70.5 87.5)"><path d="M32 0 M32 0 C57.06 0.39, 84.77 -1.15, 109 0 M32 0 C54.72 -0.09, 76.81 0.69, 109 0 M109 0 C130.17 0.48, 139.5 10.26, 141 32 M109 0 C130.31 -1.77, 142.05 10.41, 141 32 M141 32 C139.51 72.25, 140.69 110.09, 141 143 M141 32 C142.01 73.8, 142.59 114.96, 141 143 M141 143 C140.66 164.17, 132.14 173.11, 109 175 M141 143 C141.54 164.05, 129.1 175.64, 109 175 M109 175 C87.71 175.09, 66.74 173.97, 32 175 M109 175 C86.7 175.8, 63.52 176.24, 32 175 M32 175 C11.93 173.72, 0.28 163.16, 0 143 M32 175 C10.46 174.46, 0.54 162.05, 0 143 M0 143 C-0.2 110.11, 1.94 75.14, 0 32 M0 143 C1.32 112.49, -0.16 81.5, 0 32 M0 32 C1.49 9.52, 12.47 0.41, 32 0 M0 32 C0.57 9.33, 10.83 -1.1, 32 0" stroke="#1e1e1e" stroke-width="1" fill="none"></path></g><g transform="translate(418 381) rotate(0 50.016666412353516 25)"><text x="0" y="0" font-family="Virgil, Segoe UI Emoji" font-size="20px" fill="#1e1e1e" text-anchor="start" style="white-space: pre;" direction="ltr" dominant-baseline="text-before-edge">dashboard</text><text x="0" y="25" font-family="Virgil, Segoe UI Emoji" font-size="20px" fill="#1e1e1e" text-anchor="start" style="white-space: pre;" direction="ltr" dominant-baseline="text-before-edge"></text></g><g transform="translate(878 127) rotate(0 94.05833435058594 12.5)"><text x="0" y="0" font-family="Virgil, Segoe UI Emoji" font-size="20px" fill="#1e1e1e" text-anchor="start" style="white-space: pre;" direction="ltr" dominant-baseline="text-before-edge">Americos 1.1.1.1:9000</text></g><g transform="translate(893 190) rotate(0 111.69166564941406 12.5)"><text x="0" y="0" font-family="Virgil, Segoe UI Emoji" font-size="20px" fill="#1e1e1e" text-anchor="start" style="white-space: pre;" direction="ltr" dominant-baseline="text-before-edge">Americos 2.2.2.2:9000</text></g><g transform="translate(899 320) rotate(0 110.45833587646484 12.5)"><text x="0" y="0" font-family="Virgil, Segoe UI Emoji" font-size="20px" fill="#1e1e1e" text-anchor="start" style="white-space: pre;" direction="ltr" dominant-baseline="text-before-edge">Americos 3.3.3.3:9000</text></g><g transform="translate(986 419) rotate(0 108.82499694824219 12.5)"><text x="0" y="0" font-family="Virgil, Segoe UI Emoji" font-size="20px" fill="#1e1e1e" text-anchor="start" style="white-space: pre;" direction="ltr" dominant-baseline="text-before-edge">Americos 4.4.4.4:9000</text></g><g transform="translate(682.8213330078125 106.61825341646735) rotate(0 93.41666412353516 10.690873291766309)"><text x="0" y="0" font-family="Virgil, Segoe UI Emoji" font-size="17.105397266826095px" fill="#1e1e1e" text-anchor="start" style="white-space: pre;" direction="ltr" dominant-baseline="text-before-edge">0.0.0.0:40000-50000</text></g><g stroke-linecap="round" transform="translate(609 657.9999999999999) rotate(0 79.5 74)"><path d="M32 0 M32 0 C62.64 -0.11, 89.85 1.92, 127 0 M32 0 C64.64 -1.51, 98.16 -1.42, 127 0 M127 0 C148.36 0.82, 159.23 10.23, 159 32 M127 0 C146.97 -0.84, 160.15 8.98, 159 32 M159 32 C158.45 52.18, 158.3 74.6, 159 116 M159 32 C160.15 60.78, 160.38 88.9, 159 116 M159 116 C160.11 137.19, 149.39 149.03, 127 148 M159 116 C160.53 137.9, 147.03 148.7, 127 148 M127 148 C105.39 149.3, 83.5 149.33, 32 148 M127 148 C89.72 149.18, 52.01 148.06, 32 148 M32 148 C8.69 148.13, 0.66 138.55, 0 116 M32 148 C12.36 148.59, 0.14 138.65, 0 116 M0 116 C-1.08 83.79, 0.9 55.29, 0 32 M0 116 C-1.34 90.75, -0.92 65.65, 0 32 M0 32 C0.98 12.26, 11.88 -0.39, 32 0 M0 32 C-1.87 12.2, 12.8 -0.35, 32 0" stroke="#f08c00" stroke-width="1" fill="none"></path></g><g transform="translate(656 726.9999999999999) rotate(0 27.741666793823242 12.5)"><text x="0" y="0" font-family="Virgil, Segoe UI Emoji" font-size="20px" fill="#f08c00" text-anchor="start" style="white-space: pre;" direction="ltr" dominant-baseline="text-before-edge">helper</text></g><g stroke-linecap="round"><g transform="translate(726 240) rotate(0 64.83060274720197 -31.67478981614113)"><path d="M-0.38 0.16 C21.19 -10.51, 108.34 -52.87, 130.04 -63.51 M1.63 -0.8 C22.98 -11.35, 107.89 -51.93, 129.11 -62.24" stroke="#f08c00" stroke-width="1" fill="none"></path></g><g transform="translate(726 240) rotate(0 64.83060274720197 -31.67478981614113)"><path d="M108.43 -40.7 C114.65 -48.64, 121.84 -55.86, 130.22 -60.75 M109.09 -40.9 C113.94 -45.52, 117.36 -49.48, 129.54 -62.9" stroke="#f08c00" stroke-width="1" fill="none"></path></g><g transform="translate(726 240) rotate(0 64.83060274720197 -31.67478981614113)"><path d="M99.52 -59.19 C108.98 -60.54, 119.33 -61.2, 130.22 -60.75 M100.18 -59.39 C107 -59.74, 112.44 -59.51, 129.54 -62.9" stroke="#f08c00" stroke-width="1" fill="none"></path></g></g><mask></mask><g stroke-linecap="round"><g transform="translate(998.6199050793457 586.6468574740998) rotate(0 -110.80818289844018 66.92613943696145)"><path d="M1.1 0.19 C-35.9 22.28, -184.85 111.23, -222.06 133.43 M0.22 -0.75 C-36.88 21.4, -185.56 112.09, -222.72 134.6" stroke="#f08c00" stroke-width="1" fill="none"></path></g><g transform="translate(998.6199050793457 586.6468574740998) rotate(0 -110.80818289844018 66.92613943696145)"><path d="M-203.63 112.12 C-210.44 118.92, -216 125.95, -222.52 134.91 M-204.84 110.44 C-207.62 117.02, -213.24 121.47, -221.81 134.78" stroke="#f08c00" stroke-width="1" fill="none"></path></g><g transform="translate(998.6199050793457 586.6468574740998) rotate(0 -110.80818289844018 66.92613943696145)"><path d="M-192.97 129.65 C-203.03 131.42, -211.72 133.31, -222.52 134.91 M-194.18 127.98 C-199.39 130.64, -207.45 131.09, -221.81 134.78" stroke="#f08c00" stroke-width="1" fill="none"></path></g></g><mask></mask><g transform="translate(806.9482139430444 659.781789123411) rotate(334.93702744767694 91.816665649414 11.492612527736924)"><text x="0" y="0" font-family="Virgil, Segoe UI Emoji" font-size="18.388180044379084px" fill="#f08c00" text-anchor="start" style="white-space: pre;" direction="ltr" dominant-baseline="text-before-edge">Return SRV address</text></g><g stroke-linecap="round"><g transform="translate(783.0000000000001 693.3122358950171) rotate(0 101.99992574133825 -53.44681480090523)"><path d="M-0.25 -0.55 C33.88 -18.51, 170.3 -90.64, 204.25 -108.68 M1.82 1.78 C35.83 -15.88, 169.22 -88.84, 203.23 -107.04" stroke="#f08c00" stroke-width="1" fill="none"></path></g><g transform="translate(783.0000000000001 693.3122358950171) rotate(0 101.99992574133825 -53.44681480090523)"><path d="M182.42 -84.82 C188.89 -91.82, 193.82 -96.45, 201.26 -107.89 M183.83 -85.41 C188.44 -91.2, 195.32 -97.8, 202.62 -106.66" stroke="#f08c00" stroke-width="1" fill="none"></path></g><g transform="translate(783.0000000000001 693.3122358950171) rotate(0 101.99992574133825 -53.44681480090523)"><path d="M172.65 -102.87 C181.47 -105.25, 188.9 -105.27, 201.26 -107.89 M174.06 -103.46 C181.44 -104.29, 191.05 -105.86, 202.62 -106.66" stroke="#f08c00" stroke-width="1" fill="none"></path></g></g><mask></mask><g stroke-linecap="round"><g transform="translate(540.553374010801 512) rotate(0 43.960030962591986 13.190271861537866)"><path d="M-1.13 0.02 C13.61 4.44, 74.3 21.87, 89.05 26.33 M0.48 -1.01 C15.1 3.54, 74.4 22.58, 88.69 27.39" stroke="#f08c00" stroke-width="1" fill="none"></path></g><g transform="translate(540.553374010801 512) rotate(0 43.960030962591986 13.190271861537866)"><path d="M58.75 30.26 C67.79 27.32, 79.15 29.28, 88.51 28.15 M59.54 28.56 C67.16 28.69, 76.05 27.87, 88.01 27.3" stroke="#f08c00" stroke-width="1" fill="none"></path></g><g transform="translate(540.553374010801 512) rotate(0 43.960030962591986 13.190271861537866)"><path d="M65.13 10.76 C71.9 14.65, 81 23.5, 88.51 28.15 M65.93 9.06 C71.67 15.02, 78.64 20.08, 88.01 27.3" stroke="#f08c00" stroke-width="1" fill="none"></path></g></g><mask></mask><g transform="translate(477.56309924237587 545.1860562923081) rotate(20.790506315522418 75.21666717529297 25)"><text x="0" y="0" font-family="Virgil, Segoe UI Emoji" font-size="20px" fill="#f08c00" text-anchor="start" style="white-space: pre;" direction="ltr" dominant-baseline="text-before-edge">Get Socks List</text><text x="0" y="25" font-family="Virgil, Segoe UI Emoji" font-size="20px" fill="#f08c00" text-anchor="start" style="white-space: pre;" direction="ltr" dominant-baseline="text-before-edge">route /bots</text></g><g transform="translate(742 187) rotate(335.57807358432393 33.125 12.5)"><text x="0" y="0" font-family="Virgil, Segoe UI Emoji" font-size="20px" fill="#f08c00" text-anchor="start" style="white-space: pre;" direction="ltr" dominant-baseline="text-before-edge">Socks5</text></g><g stroke-linecap="round"><g transform="translate(558 414.96910255141427) rotate(0 33.34178953766826 -3.148539335180317)"><path d="M-1.01 1.17 C10.46 0.39, 56.36 -4.37, 67.7 -5.91 M0.65 0.74 C12.04 -0.25, 55.13 -6.13, 66.59 -7.47" stroke="#f08c00" stroke-width="1" fill="none"></path></g><g transform="translate(558 414.96910255141427) rotate(0 33.34178953766826 -3.148539335180317)"><path d="M41.87 5.76 C47.29 2.07, 49.18 -1.06, 65.75 -6.52 M40.31 7.19 C46.07 2.92, 51.14 0.69, 66.88 -6.85" stroke="#f08c00" stroke-width="1" fill="none"></path></g><g transform="translate(558 414.96910255141427) rotate(0 33.34178953766826 -3.148539335180317)"><path d="M39.29 -14.6 C45.03 -14.11, 47.45 -13.08, 65.75 -6.52 M37.73 -13.16 C44.27 -12.76, 49.92 -10.31, 66.88 -6.85" stroke="#f08c00" stroke-width="1" fill="none"></path></g></g><mask></mask><g stroke-linecap="round"><g transform="translate(547 363.96164403282705) rotate(0 37.20103850577493 -27.004353147788294)"><path d="M0.23 0.52 C12.71 -8.42, 63.01 -43.93, 75.5 -52.95 M-1.1 -0.25 C11.21 -9.57, 62.22 -45.28, 74.82 -54.53" stroke="#f08c00" stroke-width="1" fill="none"></path></g><g transform="translate(547 363.96164403282705) rotate(0 37.20103850577493 -27.004353147788294)"><path d="M58.73 -28.94 C65.41 -38.24, 70.28 -45.43, 74.59 -53.88 M58.74 -30.53 C62.03 -37.48, 67.06 -45.07, 74.52 -54.84" stroke="#f08c00" stroke-width="1" fill="none"></path></g><g transform="translate(547 363.96164403282705) rotate(0 37.20103850577493 -27.004353147788294)"><path d="M46.79 -45.63 C57.78 -49.07, 66.86 -50.38, 74.59 -53.88 M46.8 -47.22 C53.48 -49.37, 61.98 -52.11, 74.52 -54.84" stroke="#f08c00" stroke-width="1" fill="none"></path></g></g><mask></mask><g transform="translate(861 746) rotate(0 184.34165954589844 25)"><text x="0" y="0" font-family="Virgil, Segoe UI Emoji" font-size="20px" fill="#1e1e1e" text-anchor="start" style="white-space: pre;" direction="ltr" dominant-baseline="text-before-edge">SRV 1Gb internet == 1000 online bots</text><text x="0" y="25" font-family="Virgil, Segoe UI Emoji" font-size="20px" fill="#1e1e1e" text-anchor="start" style="white-space: pre;" direction="ltr" dominant-baseline="text-before-edge"></text></g><g transform="translate(839.7013330078121 793) rotate(0 241.06666564941406 23)"><text x="0" y="0" font-family="Virgil, Segoe UI Emoji" font-size="18.400000000000013px" fill="#1e1e1e" text-anchor="start" style="white-space: pre;" direction="ltr" dominant-baseline="text-before-edge">Helper VPS 1gb (cheap) - Route Bots to Specific SRV</text><text x="0" y="23.000000000000014" font-family="Virgil, Segoe UI Emoji" font-size="18.400000000000013px" fill="#1e1e1e" text-anchor="start" style="white-space: pre;" direction="ltr" dominant-baseline="text-before-edge">Must be always ALIVE</text></g><g transform="translate(10 639) rotate(0 187.39999389648438 87.5)"><text x="0" y="0" font-family="Virgil, Segoe UI Emoji" font-size="20px" fill="#1e1e1e" text-anchor="start" style="white-space: pre;" direction="ltr" dominant-baseline="text-before-edge">38.180.61.234 SRV</text><text x="0" y="25" font-family="Virgil, Segoe UI Emoji" font-size="20px" fill="#1e1e1e" text-anchor="start" style="white-space: pre;" direction="ltr" dominant-baseline="text-before-edge">Service Ports 30000-30100</text><text x="0" y="50" font-family="Virgil, Segoe UI Emoji" font-size="20px" fill="#1e1e1e" text-anchor="start" style="white-space: pre;" direction="ltr" dominant-baseline="text-before-edge">20001:/addProxy</text><text x="0" y="75" font-family="Virgil, Segoe UI Emoji" font-size="20px" fill="#1e1e1e" text-anchor="start" style="white-space: pre;" direction="ltr" dominant-baseline="text-before-edge">20001:/proxies</text><text x="0" y="100" font-family="Virgil, Segoe UI Emoji" font-size="20px" fill="#1e1e1e" text-anchor="start" style="white-space: pre;" direction="ltr" dominant-baseline="text-before-edge"></text><text x="0" y="125" font-family="Virgil, Segoe UI Emoji" font-size="20px" fill="#1e1e1e" text-anchor="start" style="white-space: pre;" direction="ltr" dominant-baseline="text-before-edge">Proxy Relay 40000-50000 TCP/UDP</text><text x="0" y="150" font-family="Virgil, Segoe UI Emoji" font-size="20px" fill="#1e1e1e" text-anchor="start" style="white-space: pre;" direction="ltr" dominant-baseline="text-before-edge"></text></g><g transform="translate(465 857) rotate(0 166.46665954589844 25)"><text x="0" y="0" font-family="Virgil, Segoe UI Emoji" font-size="20px" fill="#1e1e1e" text-anchor="start" style="white-space: pre;" direction="ltr" dominant-baseline="text-before-edge">38.180.61.247 Helper</text><text x="0" y="25" font-family="Virgil, Segoe UI Emoji" font-size="20px" fill="#1e1e1e" text-anchor="start" style="white-space: pre;" direction="ltr" dominant-baseline="text-before-edge">25000:/route RegisterNewProxies</text></g><g stroke-linecap="round"><g transform="translate(675 241) rotate(0 52.80372583841438 -56.44489398375154)"><path d="M0.13 0.18 C17.84 -18.85, 89.07 -94.45, 106.88 -113.07 M-1.27 -0.77 C16.31 -19.18, 88.39 -93.29, 106.39 -112.1" stroke="#1e1e1e" stroke-width="1" fill="none"></path></g></g><mask></mask><g stroke-linecap="round"><g transform="translate(684 648) rotate(0 0.6047804079950083 -23.14492567405108)"><path d="M-0.73 -0.01 C-0.37 -7.55, 1.71 -38.51, 1.94 -46.28 M1.09 -1.06 C1.38 -8.33, 1.71 -37.47, 1.48 -44.89" stroke="#1e1e1e" stroke-width="1" fill="none"></path></g><g transform="translate(684 648) rotate(0 0.6047804079950083 -23.14492567405108)"><path d="M9.47 -21.76 C6.93 -30.1, 4.12 -37.2, 3.32 -44.47 M9.05 -22.97 C6.94 -31.05, 2.39 -41.13, 1.35 -45.51" stroke="#1e1e1e" stroke-width="1" fill="none"></path></g><g transform="translate(684 648) rotate(0 0.6047804079950083 -23.14492567405108)"><path d="M-6.27 -21.66 C-4.32 -29.93, -2.64 -37.06, 3.32 -44.47 M-6.69 -22.87 C-2.54 -31.05, -0.83 -41.18, 1.35 -45.51" stroke="#1e1e1e" stroke-width="1" fill="none"></path></g></g><mask></mask><g stroke-linecap="round" transform="translate(482 730) rotate(0 60 36)"><path d="M18 0 M18 0 C45.38 -0.17, 71.27 -0.53, 102 0 M18 0 C40.96 -0.55, 62.61 -0.61, 102 0 M102 0 C114.51 -0.07, 118.97 7.98, 120 18 M102 0 C113.52 0.04, 118.1 7.05, 120 18 M120 18 C120 29.99, 119.72 42, 120 54 M120 18 C119.02 28.04, 119.62 36.37, 120 54 M120 54 C120.74 67.79, 115.89 70.9, 102 72 M120 54 C121.71 68.21, 112.57 72.85, 102 72 M102 72 C81.9 71.52, 62.23 72.38, 18 72 M102 72 C81.65 71.21, 60.55 71.81, 18 72 M18 72 C6.24 73.19, -0.83 65.44, 0 54 M18 72 C7.24 72.79, 0.62 65.72, 0 54 M0 54 C0.32 44.98, -0.11 37.31, 0 18 M0 54 C0.08 44.41, 0.89 34.58, 0 18 M0 18 C-0.97 7.75, 6.41 1.43, 18 0 M0 18 C-1.26 7.16, 6.68 -2.13, 18 0" stroke="#f08c00" stroke-width="1" fill="none"></path></g><g stroke-linecap="round" transform="translate(483 647) rotate(0 58 37.5)"><path d="M18.75 0 M18.75 0 C46.28 -2.09, 74.75 1.24, 97.25 0 M18.75 0 C42.93 -0.43, 69.14 -0.84, 97.25 0 M97.25 0 C110.05 -0.72, 117.92 4.31, 116 18.75 M97.25 0 C108.64 2.02, 116.47 7.89, 116 18.75 M116 18.75 C114.34 29.84, 117.26 35.83, 116 56.25 M116 18.75 C115.08 33.04, 116.12 46.68, 116 56.25 M116 56.25 C114.68 67.98, 108.91 76.75, 97.25 75 M116 56.25 C113.9 66.45, 109.01 75.58, 97.25 75 M97.25 75 C78.01 76.27, 60.67 72.63, 18.75 75 M97.25 75 C71.73 73.74, 45.76 75.21, 18.75 75 M18.75 75 C6.32 75.86, 0.24 68.74, 0 56.25 M18.75 75 C4.08 73.83, 0.34 70.7, 0 56.25 M0 56.25 C-0.98 46.6, 1.33 41.96, 0 18.75 M0 56.25 C-1.01 43.13, 0.06 32.43, 0 18.75 M0 18.75 C0.92 5.79, 8.06 1.75, 18.75 0 M0 18.75 C1.23 6.16, 6.74 -1.06, 18.75 0" stroke="#f08c00" stroke-width="1" fill="none"></path></g><g transform="translate(492.21666717529297 674.5) rotate(0 48.78333282470703 10)"><text x="48.78333282470703" y="0" font-family="Virgil, Segoe UI Emoji" font-size="16px" fill="#f08c00" text-anchor="middle" style="white-space: pre;" direction="ltr" dominant-baseline="text-before-edge">HelperReserv</text></g><g transform="translate(496 749) rotate(0 48.78333282470703 10)"><text x="0" y="0" font-family="Virgil, Segoe UI Emoji" font-size="16px" fill="#f08c00" text-anchor="start" style="white-space: pre;" direction="ltr" dominant-baseline="text-before-edge">HelperReserv</text></g><g stroke-linecap="round" transform="translate(371 10) rotate(0 69.5 66)"><path d="M32 0 M32 0 C53.37 -1.82, 72.59 0.55, 107 0 M32 0 C52.06 0.83, 71.19 0.19, 107 0 M107 0 C128.19 0.23, 137.11 10.9, 139 32 M107 0 C129.47 0.06, 140.07 9.8, 139 32 M139 32 C139.02 59.94, 138.87 86.88, 139 100 M139 32 C138.78 53.64, 137.61 72.82, 139 100 M139 100 C139.51 119.71, 128.93 132.75, 107 132 M139 100 C140 123.6, 129.58 132, 107 132 M107 132 C87.22 132.17, 63.09 134.21, 32 132 M107 132 C78.47 131.38, 50.94 131.69, 32 132 M32 132 C9.56 133.05, -1.64 120.64, 0 100 M32 132 C9.46 133.54, 0.86 120.66, 0 100 M0 100 C-0.97 81.12, 0.23 59.31, 0 32 M0 100 C0.39 75.56, 0.95 50.75, 0 32 M0 32 C1.31 12.58, 11.59 0.78, 32 0 M0 32 C1.86 10.14, 9.38 -1.47, 32 0" stroke="#f08c00" stroke-width="1" fill="none"></path></g><g transform="translate(399.2083320617676 66) rotate(0 41.29166793823242 10)"><text x="41.29166793823242" y="0" font-family="Virgil, Segoe UI Emoji" font-size="16px" fill="#f08c00" text-anchor="middle" style="white-space: pre;" direction="ltr" dominant-baseline="text-before-edge">DataBase</text></g><g stroke-linecap="round"><g transform="translate(651.0076473227648 220) rotate(0 -62.16702058728379 -35.207741839041276)"><path d="M-0.64 -0.65 C-21.55 -12.52, -103.77 -60.38, -124.47 -72.04 M1.22 1.62 C-19.95 -10.01, -104.36 -58.43, -125.56 -70.77" stroke="#f08c00" stroke-width="1" fill="none"></path></g><g transform="translate(651.0076473227648 220) rotate(0 -62.16702058728379 -35.207741839041276)"><path d="M-97.1 -66.01 C-108.11 -68.78, -116.95 -70.54, -124.18 -72.27 M-96.61 -65.98 C-103.88 -66.62, -113.05 -68.38, -125.76 -70.33" stroke="#f08c00" stroke-width="1" fill="none"></path></g><g transform="translate(651.0076473227648 220) rotate(0 -62.16702058728379 -35.207741839041276)"><path d="M-107.35 -48.23 C-114.32 -57.74, -119.24 -66.29, -124.18 -72.27 M-106.86 -48.21 C-110.95 -54.23, -117.03 -61.33, -125.76 -70.33" stroke="#f08c00" stroke-width="1" fill="none"></path></g></g><mask></mask><g stroke-linecap="round"><g transform="translate(513.901755972877 166.69364898770772) rotate(0 63.81110215563331 32.819945237786946)"><path d="M0.34 -0.88 C21.54 10.05, 105.19 54.29, 126.28 65.44 M-0.94 1.28 C20.72 12.35, 107.4 55.53, 128.56 66.52" stroke="#f08c00" stroke-width="1" fill="none"></path></g><g transform="translate(513.901755972877 166.69364898770772) rotate(0 63.81110215563331 32.819945237786946)"><path d="M97.32 61.55 C103.98 63.29, 111.63 63.73, 128.64 65.87 M99.46 63.77 C105.64 63.52, 113.76 64.91, 128.92 65.96" stroke="#f08c00" stroke-width="1" fill="none"></path></g><g transform="translate(513.901755972877 166.69364898770772) rotate(0 63.81110215563331 32.819945237786946)"><path d="M106.6 43.25 C111.17 49.11, 116.74 53.64, 128.64 65.87 M108.75 45.47 C112.49 49.86, 118.25 55.9, 128.92 65.96" stroke="#f08c00" stroke-width="1" fill="none"></path></g></g><mask></mask><g stroke-linecap="round"><g transform="translate(855 203) rotate(0 -63.339434077283386 27.71745784692466)"><path d="M0.72 -1.18 C-20.62 8.23, -105.56 47.03, -126.98 56.62 M-0.37 0.81 C-21.87 9.86, -106.04 45.92, -127.39 54.82" stroke="#f08c00" stroke-width="1" fill="none"></path></g><g transform="translate(855 203) rotate(0 -63.339434077283386 27.71745784692466)"><path d="M-107.4 36.08 C-112.9 42.77, -121.87 49.32, -127.19 56.66 M-105.05 33.77 C-111.3 38.98, -116.24 45.09, -126.66 54.6" stroke="#f08c00" stroke-width="1" fill="none"></path></g><g transform="translate(855 203) rotate(0 -63.339434077283386 27.71745784692466)"><path d="M-99.4 54.98 C-108.03 54.38, -120.1 53.6, -127.19 56.66 M-97.05 52.67 C-105.21 53.22, -112.13 54.64, -126.66 54.6" stroke="#f08c00" stroke-width="1" fill="none"></path></g></g><mask></mask><g stroke-linecap="round"><g transform="translate(825 507) rotate(0 -35.654540524333754 68.7540212609619)"><path d="M0.46 0.85 C-11.53 23.34, -58.85 113.33, -70.88 135.82 M-0.76 0.25 C-12.98 22.86, -60.35 114.47, -71.77 137.26" stroke="#1e1e1e" stroke-width="1" fill="none"></path></g><g transform="translate(825 507) rotate(0 -35.654540524333754 68.7540212609619)"><path d="M-66.67 107.68 C-69.6 117.76, -71.08 130.06, -72.99 138.78 M-68.78 107.17 C-68.25 116.8, -70.84 127.23, -70.92 137.65" stroke="#1e1e1e" stroke-width="1" fill="none"></path></g><g transform="translate(825 507) rotate(0 -35.654540524333754 68.7540212609619)"><path d="M-48.4 117.02 C-58.46 123.55, -67 132.25, -72.99 138.78 M-50.5 116.5 C-55.78 123.07, -64.13 130.56, -70.92 137.65" stroke="#1e1e1e" stroke-width="1" fill="none"></path></g></g><mask></mask><g stroke-linecap="round"><g transform="translate(877 517) rotate(0 -49.33982537575065 71.12136850357055)"><path d="M0.15 -0.92 C-16.13 22.89, -82.54 118.24, -98.83 142.1 M-1.23 1.21 C-17.03 25.21, -80.4 119.5, -96.56 143.16" stroke="#1e1e1e" stroke-width="1" fill="none"></path></g><g transform="translate(877 517) rotate(0 -49.33982537575065 71.12136850357055)"><path d="M-90.79 112.68 C-92.44 120.71, -93.68 125.31, -95.35 141.38 M-88.52 113.69 C-90.92 122.07, -93.67 130.42, -97.2 142.68" stroke="#1e1e1e" stroke-width="1" fill="none"></path></g><g transform="translate(877 517) rotate(0 -49.33982537575065 71.12136850357055)"><path d="M-73.8 124.18 C-78.87 129.86, -83.61 132.09, -95.35 141.38 M-71.52 125.19 C-78.53 130.29, -85.91 135.51, -97.2 142.68" stroke="#1e1e1e" stroke-width="1" fill="none"></path></g></g><mask></mask></svg>